<mxfile host="app.diagrams.net" agent="Mozilla/5.0 (Windows NT 10.0; Win64; x64) AppleWebKit/537.36 (KHTML, like Gecko) Chrome/138.0.0.0 Safari/537.36" version="28.0.9">
  <diagram name="Page-1" id="WwoQLFxgW4F2WPNICwJ8">
    <mxGraphModel dx="1042" dy="1662" grid="1" gridSize="10" guides="1" tooltips="1" connect="1" arrows="1" fold="1" page="1" pageScale="1" pageWidth="850" pageHeight="1100" math="0" shadow="0">
      <root>
        <mxCell id="0" />
        <mxCell id="1" parent="0" />
        <mxCell id="LMukZNEwBTwXTP5Ie_SG-1" value="" style="edgeStyle=orthogonalEdgeStyle;rounded=0;orthogonalLoop=1;jettySize=auto;html=1;" edge="1" parent="1">
          <mxGeometry relative="1" as="geometry">
            <mxPoint x="297" y="180" as="sourcePoint" />
            <mxPoint x="334" y="180" as="targetPoint" />
          </mxGeometry>
        </mxCell>
        <mxCell id="LMukZNEwBTwXTP5Ie_SG-2" value="&lt;b&gt;&lt;i&gt;/ingest&lt;/i&gt; API called with &lt;i&gt;subject, filename, use_llmaparse=false/true&lt;/i&gt;&lt;/b&gt;" style="rounded=1;whiteSpace=wrap;html=1;fillColor=#d5e8d4;strokeColor=#82b366;shadow=1;" vertex="1" parent="1">
          <mxGeometry x="157" y="150" width="150" height="60" as="geometry" />
        </mxCell>
        <mxCell id="LMukZNEwBTwXTP5Ie_SG-3" value="" style="edgeStyle=orthogonalEdgeStyle;rounded=0;orthogonalLoop=1;jettySize=auto;html=1;" edge="1" parent="1" source="LMukZNEwBTwXTP5Ie_SG-4" target="LMukZNEwBTwXTP5Ie_SG-2">
          <mxGeometry relative="1" as="geometry" />
        </mxCell>
        <mxCell id="LMukZNEwBTwXTP5Ie_SG-4" value="&lt;b&gt;User Click on Ingest button&lt;/b&gt;" style="rounded=1;whiteSpace=wrap;html=1;fillColor=#ffe6cc;strokeColor=#d79b00;shadow=1;" vertex="1" parent="1">
          <mxGeometry x="9" y="150" width="120" height="60" as="geometry" />
        </mxCell>
        <mxCell id="LMukZNEwBTwXTP5Ie_SG-5" style="edgeStyle=orthogonalEdgeStyle;rounded=0;orthogonalLoop=1;jettySize=auto;html=1;exitX=0.5;exitY=0;exitDx=0;exitDy=0;exitPerimeter=0;entryX=0;entryY=0.5;entryDx=0;entryDy=0;entryPerimeter=0;" edge="1" parent="1" source="LMukZNEwBTwXTP5Ie_SG-9" target="LMukZNEwBTwXTP5Ie_SG-30">
          <mxGeometry relative="1" as="geometry">
            <mxPoint x="485" y="90" as="targetPoint" />
          </mxGeometry>
        </mxCell>
        <mxCell id="LMukZNEwBTwXTP5Ie_SG-6" value="is PDF ?" style="edgeLabel;html=1;align=center;verticalAlign=middle;resizable=0;points=[];" vertex="1" connectable="0" parent="LMukZNEwBTwXTP5Ie_SG-5">
          <mxGeometry x="-0.0232" y="-1" relative="1" as="geometry">
            <mxPoint x="12" y="-2" as="offset" />
          </mxGeometry>
        </mxCell>
        <mxCell id="LMukZNEwBTwXTP5Ie_SG-7" style="edgeStyle=orthogonalEdgeStyle;rounded=0;orthogonalLoop=1;jettySize=auto;html=1;exitX=0.5;exitY=1;exitDx=0;exitDy=0;exitPerimeter=0;entryX=0;entryY=0.5;entryDx=0;entryDy=0;" edge="1" parent="1" source="LMukZNEwBTwXTP5Ie_SG-9" target="LMukZNEwBTwXTP5Ie_SG-13">
          <mxGeometry relative="1" as="geometry" />
        </mxCell>
        <mxCell id="LMukZNEwBTwXTP5Ie_SG-8" value="is DOCX ?" style="edgeLabel;html=1;align=center;verticalAlign=middle;resizable=0;points=[];" vertex="1" connectable="0" parent="LMukZNEwBTwXTP5Ie_SG-7">
          <mxGeometry x="0.0189" y="-1" relative="1" as="geometry">
            <mxPoint x="28" y="-2" as="offset" />
          </mxGeometry>
        </mxCell>
        <mxCell id="LMukZNEwBTwXTP5Ie_SG-9" value="&lt;b&gt;File existence and&lt;/b&gt;&lt;div&gt;&lt;b&gt;file type check&lt;/b&gt;&lt;/div&gt;" style="strokeWidth=2;html=1;shape=mxgraph.flowchart.decision;whiteSpace=wrap;fillColor=#f8cecc;strokeColor=#b85450;" vertex="1" parent="1">
          <mxGeometry x="336" y="120" width="130" height="120.5" as="geometry" />
        </mxCell>
        <mxCell id="LMukZNEwBTwXTP5Ie_SG-67" style="edgeStyle=orthogonalEdgeStyle;rounded=0;orthogonalLoop=1;jettySize=auto;html=1;exitX=1;exitY=0.5;exitDx=0;exitDy=0;entryX=0.5;entryY=1;entryDx=0;entryDy=0;" edge="1" parent="1" source="LMukZNEwBTwXTP5Ie_SG-13" target="LMukZNEwBTwXTP5Ie_SG-15">
          <mxGeometry relative="1" as="geometry" />
        </mxCell>
        <mxCell id="LMukZNEwBTwXTP5Ie_SG-13" value="&lt;b&gt;Load with Docx2txtLoader&lt;/b&gt;" style="rounded=1;whiteSpace=wrap;html=1;fillColor=#dae8fc;strokeColor=#6c8ebf;" vertex="1" parent="1">
          <mxGeometry x="905" y="290" width="100" height="60" as="geometry" />
        </mxCell>
        <mxCell id="LMukZNEwBTwXTP5Ie_SG-57" style="edgeStyle=orthogonalEdgeStyle;rounded=0;orthogonalLoop=1;jettySize=auto;html=1;exitX=1;exitY=0.5;exitDx=0;exitDy=0;" edge="1" parent="1" source="LMukZNEwBTwXTP5Ie_SG-29" target="LMukZNEwBTwXTP5Ie_SG-15">
          <mxGeometry relative="1" as="geometry" />
        </mxCell>
        <mxCell id="LMukZNEwBTwXTP5Ie_SG-29" value="&lt;b&gt;Load with pyPDFLoader&lt;/b&gt;" style="rounded=1;whiteSpace=wrap;html=1;fillColor=#dae8fc;strokeColor=#6c8ebf;" vertex="1" parent="1">
          <mxGeometry x="905" y="203" width="100" height="60" as="geometry" />
        </mxCell>
        <mxCell id="LMukZNEwBTwXTP5Ie_SG-34" style="edgeStyle=orthogonalEdgeStyle;rounded=0;orthogonalLoop=1;jettySize=auto;html=1;exitX=0.5;exitY=0;exitDx=0;exitDy=0;exitPerimeter=0;entryX=0;entryY=0.5;entryDx=0;entryDy=0;" edge="1" parent="1" source="LMukZNEwBTwXTP5Ie_SG-30" target="LMukZNEwBTwXTP5Ie_SG-33">
          <mxGeometry relative="1" as="geometry" />
        </mxCell>
        <mxCell id="LMukZNEwBTwXTP5Ie_SG-36" value="Yes" style="edgeLabel;html=1;align=center;verticalAlign=middle;resizable=0;points=[];" vertex="1" connectable="0" parent="LMukZNEwBTwXTP5Ie_SG-34">
          <mxGeometry x="0.1312" y="-2" relative="1" as="geometry">
            <mxPoint y="-2" as="offset" />
          </mxGeometry>
        </mxCell>
        <mxCell id="LMukZNEwBTwXTP5Ie_SG-55" style="edgeStyle=orthogonalEdgeStyle;rounded=0;orthogonalLoop=1;jettySize=auto;html=1;exitX=0.5;exitY=1;exitDx=0;exitDy=0;exitPerimeter=0;entryX=0;entryY=0.5;entryDx=0;entryDy=0;" edge="1" parent="1" source="LMukZNEwBTwXTP5Ie_SG-30" target="LMukZNEwBTwXTP5Ie_SG-29">
          <mxGeometry relative="1" as="geometry" />
        </mxCell>
        <mxCell id="LMukZNEwBTwXTP5Ie_SG-56" value="No" style="edgeLabel;html=1;align=center;verticalAlign=middle;resizable=0;points=[];" vertex="1" connectable="0" parent="LMukZNEwBTwXTP5Ie_SG-55">
          <mxGeometry x="0.2965" y="-4" relative="1" as="geometry">
            <mxPoint x="1" y="-5" as="offset" />
          </mxGeometry>
        </mxCell>
        <mxCell id="LMukZNEwBTwXTP5Ie_SG-30" value="&lt;b&gt;use_llmaparse ?&lt;/b&gt;" style="strokeWidth=2;html=1;shape=mxgraph.flowchart.decision;whiteSpace=wrap;fillColor=#f8cecc;strokeColor=#b85450;" vertex="1" parent="1">
          <mxGeometry x="500" y="40" width="130" height="120.5" as="geometry" />
        </mxCell>
        <mxCell id="LMukZNEwBTwXTP5Ie_SG-15" value="&lt;b style=&quot;text-wrap-mode: nowrap;&quot;&gt;Send pages to&lt;/b&gt;&lt;div style=&quot;text-wrap-mode: nowrap;&quot;&gt;&lt;b&gt;Chunking module&lt;/b&gt;&lt;/div&gt;" style="rounded=1;whiteSpace=wrap;html=1;fillColor=#ffe6cc;strokeColor=#d79b00;" vertex="1" parent="1">
          <mxGeometry x="1020" y="112" width="140" height="60" as="geometry" />
        </mxCell>
        <mxCell id="LMukZNEwBTwXTP5Ie_SG-41" value="" style="edgeStyle=orthogonalEdgeStyle;rounded=0;orthogonalLoop=1;jettySize=auto;html=1;" edge="1" parent="1" source="LMukZNEwBTwXTP5Ie_SG-33" target="LMukZNEwBTwXTP5Ie_SG-38">
          <mxGeometry relative="1" as="geometry" />
        </mxCell>
        <mxCell id="LMukZNEwBTwXTP5Ie_SG-33" value="" style="shape=image;verticalLabelPosition=bottom;labelBackgroundColor=default;verticalAlign=top;aspect=fixed;imageAspect=0;image=data:image/png,iVBORw0KGgoAAAANSUhEUgAAAHgAAABFCAYAAACBgCKhAAAAAXNSR0IArs4c6QAAAARnQU1BAACxjwv8YQUAAAAJcEhZcwAADsMAAA7DAcdvqGQAACMOSURBVHhe7Z1pkGXHVed/J/Pet9Veve/qVmuXZbXcWi0jgwdjbIwZhiAYIiCGmBgCGAgzMTGB7eAD60TM5pn5MBEzeCLALAYkxghDYIxBY2zJUoMW3C3JWt2L1Gr1UtW1vfXezDMfMu97972qai2WWuWI+Xdk13v33ry5nJMnT55zMp/s+KOj6gx4qaB4VD0WQdUDCoABBMMA5c8e8CgSvmnIAyAIRsL1gHI+RXHwJvMJgq7KB0bWq+dwPlWNrVsrn/Trdal8AHbdfKDkb30+U+oXHeRTAFHqTsmp00s8SBPh8001tk2NDJEUVUUQvHooGh8zD1CqjIZK9L/3P4ERGKLT250PGOq3Uj4A79fOJ4D5Tsk31DHlzxZHhaq2ccbiTI+eFWTs3tM63nyWbae+Ql17sYdiD4sgGhhFSp06Co3PrY11b/z/fOvg0vlYO68aVC0iTTJJ6FJnbtddSONPTuqBl77EdUf+A5NuATWCqqCR0IXoVR3msiCaI4aH2zAuU77iyhut55vN18cl8skl8q0uTweEu0Q+ND7Xr/jglsXhkjZCjbZu54Wbfx6p3D+vV528j8MP/wpTbo5cEro5ZF4QsXinsTJhThhgDS5aC6WGhHqH74pHxSNqQAupEebzIDlGGxnK0/jKUQ4fEGrwrVwegJc47ZTyFnd96bmihmv04SrIkJjkNZ4eYLieUiKwlkpejaJbijYYUQxgjCDqkTSnagxds50nD/0Skt5/UQ+evJfDD/86k/kcPZ+y1FFaHcU5CfOBRuKuU+560ltGsyh9xacg8OCJQVevTeAAlfAaIbxv9P1DzD9UHngTyVjOFz/7gsd00J6i/qWxPIS1a/j6EPLGEuI0OFBYhyboIagMt92IYgSsgUoVqjWhZj1ZspmnDn0CqfzZgl516j5u+fpvMNZdZKVrmVt2LLWg0wPvbazAOs0cUXrKCBUodYMOKq4onoLAPvzpE1WGCVV+BYPy1hrFhtgDUeoUUIjlxbwjBFIjkXuGx6QADle6MowhMVzOCGhJWRqFmFAD0ajnQNE6fPy2FowxfcY16sMkapXEQKPhmJwSJmoZPpnl6cOfKhP4N6m2F7m4Ipxd8Mwtw0pT8JoEjhY3xDkaPxNHVPF1FKKh9iJhbi/6Q+NoUwmkLnpHCiYYpd4QhpcOZUhcBRSLu6HajZRdRrHQEzVFs/pV8GbQ/aMYec26WJ3XR3aMjIX2y9NYHmvkM0PSzWNRRCBJlKkJx6bNyqbJHFud5ZuHP4lUvrCgB0/cyy0P/3uqrQUuLAtnLsKFBVhuGnJv8apI5P9QduiMQHhBRUAj3w2NWMLMXRDYDzheNVTMGwkiUMGggaONXoKEIKJ4XYtSoZNELVp0HhorEkgoErP1cxR/fahb7LzyFFF0eGhv/zIQ27cuSu9YJeUCgcHEsoJgVrQs6Fa93YoAEhnDh1FsoJIaZqdyNm+BbdM9kvoUz976KUwhkEQGhgPvCUnBaejM3AvOQe7BecE5Qb3gPTgPTg1eDVpOhGtOJeRBcEr4jpAj5GpxWsNRJ6eKEyH3oby1kvOC9waPwUsoQzE4MTgMXoW8KE/LKdZDw7O5GHJiEonlhrJdfEdRpi/aJiPtU7OqfkN11ZiXmOJ7vMYyAecV58F7E+rsTWjfWv2phlwNTg25B48hx/br7L2gTkANomFqNcVoDPOPAS+oU9Qr6hw4j3rF+3ANp+G+06hhR0GoiqrivS8lh/Mhv4vPOwfOxWfxoWHO0usFpsm9x/scdX7N5OP7xCvi6ZdDvOeK5zR0nPOKc+EZJdTPqcd5T4YnV0/uPL0sXAvMLeTOk7vQ7qI9OtS2eG2NOqrzaKAAGp/BR+0tJu88vv/+2JdOw/Or+rGUinvl9vliYPoorIIkUsBo7DCvDsRFMTaQEUEYmPBPLJiQJCY0il4VRA1C4B7RBPEJooqKYKqzNKavJm1sD3lt0Jat88xu3cPBm+4iwWB9VGlF8UZRMVg1VJzBugrGJ6izSJYiWYrJLTgBB+IEL4IXH5ZEroLJU8Tk5CbHaQ5OcT4hU8FUpmnMXs3Y5usZ33yIWuMKnG/gswqCxYti1GLJQPIgVlVRbKHOYYxBjcEbAyIkxpL4CgkNvE8RFYw34JM4FQlGEywWkQRMgliDlQQxSTCZFn25VnICPgwsVUHjEjNI4qQ/xSge4hIqUrLQMFfPfmGOGE6hI+P8O3gyFhDmFtRgsDgVxmd28v4P/gh7r7wRR4L3xDnAs2XnPq6+8XasSbBiEJvgrJIL5EbIDfiKkKfgEktuLHnqyJMMb0FNQm4VtZ5EaxipBYuc7WErgroa1k2SaEIqguCwtsruPYd57wd+lrs+8NPc+aGf5J6P/BxXH/oIUp0kx2MSj0qPTKt4anhJEangnQFNgZQci8OiWNRYclVc4smTHJ/0cCYnDKgcY9pI0sF7j1HbJ4to0Y+hT0f7ejgNEPXXeEcGVshwFyIVhjKNQgE//N7XhyiKVBU1FTKpoZVJvK0FBckHBcErJLUJsA20LwGqGF8h0TFSaYAk9LzD0yGYyGvkWsNpnV7PgqsADWw6hhhH7hzGWzRxtLWNtwm93KM0cFpDqIJLSKqTuErKMy88yrFHv8j5hXNce8s97Np3I2laxZkqWTJDVp2gZ2vkUgtuAMnJfU4ulkQsNUmp+Co2m4BsgsxXUJPgfYojoacJuY7R6Y3R6VXJpIrTFACDD4phfwm3/hr4tbGaltb+2Cd+ZXbhaXac/ipJ1qXZMay0hWZH6eZBtwtiYDWKgT2gf/Ep/BX1WOvpYqlM7GbPlTdw4fwp5s48SyI9RAWnCdN7383EzE5OfvMILs9Jxnazff+t7Nt3C+NTO2lM72Z8djsL8/PMbjrIlj2HGJ85wO59NzE2vo12lrBr301s33kDjenttPIc32nhRGnM7GPvwcNs2XcNjan91KZ20Jicor24xNTmK5jduZcXn3qIs08/yMriMtu230hFlTOvHEMqDXbtv4OtV1zF5NQ2GhNbqY9N0V5uMrN5N5v23EhSH2fbjp00210q9U3su/o2tu+6kWplmmylSeZbpPVJdu66hX37D7Np55X4tMby0hKGHlZzRBOCQU8BewnTSoFi9RD62YiSJoZ6VRlvKBN1h0lrXNh9N9b+2C8FAr/8VZK8ROC2p5uFldYoVxWEHYiHAiUCixBsBzk9SahO7GTfldcxf/YE8+deIKUHWLreMLXnJmZndnP8yYewtTFuuOOH2H39nSBjbN65h50HDzGz7Uqee+4J9uy/lXfd/aOMT2+jOj7L3oOH2bzrZrbtuZZKbQs7Dt6OqaTMvfQ8Y9M7ufV7fpLtu27EmQab9tzE3utvI8u7nD31DJPTu9iy4ypeOf487dZZJmd3s+PAu1mYO83C4gKH7vgI115/G2LqbN1yBfuvvp0kmeDcy6+y+4qbuO62jzK5ZQ9pvcZSq8N1t7yf2Z3Xk1Fl7/4rmD/9PF2nHLr1+zhwzV04GaMxu5MrrjvM4vx5VhZPY8kRTVFTMt2+psRch8AVx3gdxus5UqlyYff7LiEPJKzHCvHcX4TH72G2XksoDBDEezQ7qCfxilEwUYlQKezPUVLYhC37rmXbnit55hv/l4e//Fm++te/y+LCBXq5QegAHVZWLvD04/fz0Jc/w+mXn2Vmyya+8ejf8vADn+VbLx5j695rqE3uYv8192Dqmzny4Bd45IHf5h8f/2MuLr9CjuCF/vx91Q23ctN3/3PeddeH0UrOt155mj1XHmL33kMc+foXOfLAn/DYg3/F3Nx5nE3xBnIMnczz3JMP8tjXvwR5j4mJWeYWL/KNo3/HI0c+z9zKq2zdex3bD7yH50+c4tHHv8LRJx9nJatw3S33kKkNdn41+GjwWb1efgMIRoDiCwy8+MXF4ZcPfRvhqteuRtCeVWwoyAcjiThBvEU1wWOCaT0op3ibUJ/exuJyk/MnHofuCZrzz5C3W3hXCY23jjxfYOXc82QXT3Bx7jitzgXOnDxGPv88zXPPUqlMQ7qZ8c1XMr+wwNyJJ6g1T9N59RnypXkSwNocTTIya0hrm5hu7KQ9d5pvPPR5FuaeZ2rzDCvtJiefexS/cpzm+W/RWj6PWI8xOdYoWa/L6WNP4BbPsHDuRU6ceo6ZrXu447t+mF27D6OVrVSn9pLZGSa37OXWO+/hmuvfhcGi6ThpYyJ0bOEcFh3x975JlIgTlCxRlBwkLJWKOSCMvWAVij6LyCRBQSpsoX2tuQ8fkyJqsM5GhUrxpo6XBo4K+ApGPUgXTwVvanjXpZKO0ahN46SO1Cbp5YKVKqgFSbGqWKMYq/hOE+s7wBKSrFCRDkpOLwX1HRrVFG1MIkxgXR1DSoJgqGN0DJNnPPvUQxx54Hc5+tAfc/Hkw9BtkXuLEyGpTpOIxVcMRmrY3JBJF181JNTBC4kkmLzNqSf/jke+9PvMnX2Fg9e/lwPX3EbeTck6TU69+A8cfeLLPPMPX+bZr3+Bo1/7AibvgFWQLlZNUAxN9rqGzyg09rVoXNgqiMZlkhC4JwaJhBxDytNqFDPApZ5BcyweI8G/3JEa41fczIE7PsaBu/4Z1979I2y94jbU1sK6Nc85f+ZZKjbnmps/yJYr7mT/De9jets2sF0weXCJeUGkBlTDOlUUYwyZVPA0SIzHmDbnTj7FTKPBTbf/AOM7bmP3td/N1I6ryamS+zpiLKlp4nqvkLVOQPciVe9IxHDi+DFsknPnB36Uxvbb2H7tdzGxbV8w+FhPblo4s4CrLtDBMzm7n9vv/H42bd7Jy6dfpkVOfSxl/vxxRBfZecUeTGUTjYmd3HToFvZtn0Zyj4gJZlI1QBoXqW+cwANIP78MrYOHMCBbeWX1hiGCU8UYEO3SWbnI5Pgkew7cwI4r38WuK29kanYfvtuG5mkSv8LK2ef5x8f+inRiilvu/F6uuvY95J1lstYriHPQXaHXfBV1DmMSvDbJOudQ8ahU6bg2neUzVPOLHH/yIU5+83F279nHnR/4MNuv2E+reR7fWcZmXbT5Kn7lNNJtUhNPSoJ1dRLjOH/6UZ5/+ivMTExy5z0/yFXXHELzJbLOWYzL8K0LaPYiiWlhRWl2YbEF1998mMN338LywgmOP/Uwi+ePcvTInzPRGOOu9/4Ah+58P13tcPrllxAJZlckODgCWcKU9mYwyhYKSOX+Ob3q5L28+5Ffo95e5OxCwpk5y7kFx3LL4Hw1hoMU2QvxGyEMuQHLUJHAkR5U63g7gVJBjIOkhyiYdoYzGTapYnorSDWjRZUknWKisYnWyjy9LJgSUncBZIIsNSSuA96R2xRnDeK7WO3hTQNvxkizZUxmyNIpzGSN8UqNZnOZbq9LtduhlmX41NLRBENCxbSwXkFTekmbXqVNnlWomt2MT86y0l4i7y2R5G0qhmDLNkItb6EmJVNLpgmNyRmq9QbNufNUsyZd7aC2ijebGJvagtgOiwunSLME6GJNFm0GNnorPabk6FgbPjp4DKAk4qhVDbMTOds3wfaZHnZ8mmdu/2SJwEd+nVpzgXMLKWfmLecLArs0LJXeBIGL8W/IQRXBRqLnqMlQSUhcChKWTOITnM1wVjHOoHkatGwBwWHIUa3iJQ/auAg5Hi8xosHniAq5qSISjB3eGBw9jNeo8OVUc0+iFmeULhZ8FWPAmC4Gg3pQ0wlm27wegh6sInRJAKMVMhPyJx4UF4IJoitPcjBYxDi8GDwWLwanDuhgxCHaQPCoOATtW7AUsH69/iywDoEnc7Ztgu3TPZLxab55+yfKIloCQSLzBPtzKPLSLrH1IXF5pIAzirOKM0puE3JTJZeUrknITRLMySKophgX7NkmCXoVJkdNTm4FbxzWm8AsarDeknqL9QlGaySuShKZUSUn0YyaFxISrKYYX8FJhY619KxBbY6mLdR0cCbHmR4YMH4c6+sY47GJjXb4KrmtkCWKt0EpzZKMPAGVBK9pMGFKWEp1E09mDbmxeOMQk2FJEF8n+JLC3BuWi4Vf/M32dTHqC19o+G7ipYENOWpixbNQWlq9QUSHGE4Chyph/Wu9IXGW1AUmQi1KsDt7MYDFi+BikIFogtUa4hvBoI7ijCO3xegOjOit0ks8alww8qvBFG41I0COVUEl+jN8SsUnVHFYNYivo1rBx/o6C3nSQ02Gtx5nE7wkqDgsjsRbrFoSNSRqsIAaT24dmVFEg7NByAnOzEAIg4larg2rFA3MGsxZtj/I3hiKSJDBbK6EEOShh+jTvoDE62XRXBr4l5gvPMGILhiMmuDiU4dojvEO63OszxAfNWN1iBauNYfxDvFBhKl6RHPQHG81OLtdjpLjNMNpD+97ZGRk3oXA/ejigxzR4BYQyTF4rPPx/YAzcSHu+nk8PdRnsc4ZohlkHXC90GaNK8z+itCB5qAOCS2PLk2H8TniNLjxIHjt4qgF+h4nowXDD3Xj64JC1MQLtTgMJhMDVUpE1TfnXFgHYdSWLGEFu0jw8pWXBUY9oi7kUuIcI8FhgUM1w6sj9zmaO8gd6nO8eNQ5JPfQ82HaVh/mRvWoyxGX4Z2LvmYHPrzPaY7zoD5HfA9xOeIc4rKgtefB5+yyHFyGUQee4JCXYswUwjV404L0KLc29HExdIqrodWRGYon3gRxC0SbYWkADu9HWYUyMTYCQkiN0m21aDWXabZWaLVWaDeXcXmPsWqFrVNTSC+jubzIysoSyytLrCwv01peYmV5MaSVN5KWaK6EMnrdbgiE+HbMiZcV666DIzYIYcsQCfFhwb0W9lKp8+zYvJl/9wsf5zOf/u/8+Md+mLpNgsiNfu6wM2NgYVudinur7/cJKkQj/2CEbCyMKGkybF8cgg/hX+hrWLQuJ0Sibl8eQQoVa9i1eSvf+9738U/ueC+f+te/yA99z/dhISzPYgPK09BoKgvRYuUwWEGE8oqwpIBirttAEErMGrAugaHsFtxgDemTAfbt3cvHf+7n+cWf/Xn2bt1Bb6HJgS07+LHv/xj7Nu0YamCJLVZhNckHqfxpo6KsRQUEQl+awMWgH837jqNQS2D/viv46Z/6V3zswx+lalKMU9xyhztuuJkbD1wdI6eCUH/TKIb2Kqx7451FiRcNaAiDUR8DywpvUvFU0YDRxlz+hgVtWmNwdiDxN44e5T/+t0/ztw88QHtpGdTjO46tU1vZtXUXFhOWVEJJw4yhQaV0KYSWarBUSQxKLLbzbBAEb1LQwoVix0RcdhWQ/n/hyT4Jh4Luhp5+RyCEedUiLCwu8Duf+33+06c/zfz5ORK1WG8hT9i1ZScVm4aaK0MKVPHvdYtfHZQbok7fufZfGmU6CcE2OWLuKFd+uCmjHXGZG1oU1a9G+JDnjkpaZdf23ZjcIs6iGWya3kpqKxCsvrHtxaJ8QOjV7boUJDDKenu13kGEVgykG8S9YeFLQfl4q8Tc4cqICv4OoTzmFCCKzd07dtOoNtCuorngnTA9PUNik7AiEKL1KaaSuH6t1eIwij4oL6c2CEpjzceYOdPX+iUEUhfiuP9PiVy+FkoMcVkQ6hT6teBXRTBs2bwFnyneQa5K5hyzM7NUrA01FEDC+lmknIK98dKbtaORhWAy7TsFNtwo1riZr6BXwbqqA2LFdsau7NtVV3Pq5SbuoMRiZvHEfpZoInSC8RZxBs2UXbM7SJLgTC9oUvDGIEVGecPWqbX65J3DEH8KcRrpr4OLrit7k8LoBaIVaLRBl5e4ZZRroYRDS86fP49IgskTTJZis5RtE1v5gdu/nx+840N8+O6P8KG7f5Dve98P8cF7/il33/Ehbrj2DrZuvQp0vPTG9dEvt28w3jgEpm/eKOgkQbpV7p/Xgyfu49CR36DaWuTcguXsnOHcomelCblPUDXRFRXEVECZwG9HQ4vyCoRtkuocreYSuLAp2xtBvPDRwx/gT/7zZ0mXDZqHnX0dMs61F2lKRs8KGSmZQGZgxWXMrSzx6vICpy+8zGNHH+DYY/9A6/wcKhkkYQ8Q3QzxeQj2sxUa1QokQh69ZH3X6mXFaod/vWaYHu+xfTPsmMlIxmZ5+rZPlALfT3+VJOvQ7AjLHUOro/Sy4DUJikgxykfHzygh3gqszUQh6EHJsm5wxUWVwSjsnNzOB+/8HiZtI3qNQuxyrT5BrT5JrTZJvT5JpT6OrY+TjE1S27SVyb172Xrt9ey97U6uuv39TO+/jvGD13LDRz7Kwbu+m6VWTuvMy1ixGElIE4sRgzOF+Hur2/56oGsEvguNimO8AeN1j6nUubBrKPA9EqvkryrIt1G8SaNQBv07t3CR4y+fCk5/PHlUv3re0/aOtstpuYyWz2l6R0s9K3iWvGMBoT21k/Eb7uCmH/kp7v6ZT7Lvh/8l+3/8Z3nvx3+ZdPeB4DKkQ2bDGRrGS/Bdvy3S601AQwzc6MXotY5P9Cur/Ul6I6Ffw1jNvmoAnL14jqdefBafGBxxV0bcmeGAXIJYzUToGqFthLaEvx0Ruqq0xNOu1WiNT7LYmORCUmH86qu5+q7vCqfyiSc3oCTh/IANpEUXEjbsJQvzL0GrKlExutbC5uxo65F3ap5ZC1H1LTToCEFou4wz8xfIxePE42IgWwgaCn8zCakn0DOB0D2xOAyqjpycjnG0jZKpQ3yPRipsmpkhGO41jFqJRzCuG2z4TkDxBZ0Kcg3HRZdHb+jEfmjWBqBveZ1ark6xTs+9cnZpnkXXppcoXePJxYf9xSJ95aprhJ4VulboWkNXDD0xZJLQspaVxNCzCeKh3uvSOv48Lx17IhpFLImGaJEwADYSgYOIDnWSPj2Ha1iY8EKvQckisiFQiORiPRuvGTFkPufpbz3H8blXyeoJvUToGKVrlJ7RQFSjdK3SsdAxho4xdEXoSiB0x3g6xpFLTlUdcuFVHv6D3+bE338dQ4LXhMQJIi6cPvBtBKm/XQhxcEQlrG/oCDcKM17wsBSxVH6ddTBvY+NWv3fIylYazQp49WR0efy5x/ncX9zLUt7GV0w4g0OE3Fq6xtIxhraBjhG6JojqtpVAcOvoGMKxDS6n6sGfm+f844+jvSYqIeAPoiVLhxXSjQBRxWiMXonGqziCo9odgpD77jSjglVhsLFirQatJsZbg7XeG9x0BQpCB3HpWOkt8od//of81u99hovNJaSSkhvoCHRFyYynazxdk9M1jp5xdCSnY3J6xhEOUrYkXqh3hcluOBsEQGPUpJfSqV4biMASIsXDiQHxSonAa6Mg6UZdJq2CwNzKHL/1uc/wW7//vznXWqRtlW5UqjJTwSVVXFLBJRZNE6qVKtZYHGDVghfSHKabyl47xVS1bOXqB2F/x2BA4LWY8TuoIRDqq9bT1CWOvvgUF1rL9KyhZ6FHxtzSeebmXmZp8TSLc6c4++IxnnvwAY5++YssL1zAGY9RqHU8423PjNTZMrZ54BYVQMMyZCMiaNHlupW3j45gIwbdvSbChBxNeeEcLG8SvBFaK3P85Wf/K//l4z/B//o3P8Xv/Nt/wb2f/Bn+4pd/gSP/4z/QPn2cNIE0y5hs59S7ORVv2TyxNQq6kMpK5xt3ULx90DjNBk26oNhr6PkFQ2y8oLt1UOrvjIyueroKLoHl7jIvPH+UV158gpPH/p5Xjj3G3HNHyeZO4M58i/OPfI364hxT3YxtGUy1PLbpmR6bxZLGYVDe5vmd0CevYw72BaG/Q1DoPUvNFu3MkRnBJYaVXoszr54FKmEDGP1BSdZa4tn7/4zFhx9jU7NH5+QrTC9lzPoqB/YeJJGwH0o1nIK3UYmrDBNLUIxocVBKcaNc+UI+r6VBFw19hxorhVgarkrRvoXlFq1Ol5XWPPOLr7K8PM/8hbMA8cdAANXovM9pnniaV7/6N9iXXuFv/s9v85W/+RySt5md2RxPvy/m4TB1SQxy20go/PYSl0qq4aSjeLPAoNbDtB0l8jtIXErVGU2xSrmDTq/L3z/6IM8/f4yXXzoFeSeeOhsgGkUUAj5DFudonjzOc8ce4E+/9D954aUnOfvqKZwPpslwxvMGo2pEcF6GBgXKhH8lER17aIQtA9/KgIP72DiG9gJFo0CoNWqQKF/7+oOstFssrSyG6peYYACLmGk2z+zklReOcfHss7SWLzB/8QyvXDiOx5UiJoJ/ZiOivz6P0GFTZTEESp9VQyjM4KERbCB3GQSRrYBJOHz43djE8fJLJ6hWErqdZtjiGRl40NrAEFcevJ6xpMHDf/eX5N0VrE2R1OLoBa18VGPewIqJFraL8t6kQbMD+sr2xqFfgBQSZTWEsHTZsmU7199wDQ9+7cvs2bmVrTNTHH/mWAjq16AshadD86u1Gjff/G66rUVeOv4sAtQak1TGxzh97mz/pwDUFzb6tct/J1G4B/sW3YjBCI7RhYNRGRZ84YGiM0YbNhgHlw+CSVJsWiWpVLHpcEqSKp12l3v/+A/46y9+nu7yRb7wR7/H8aeewBiDTQzWWpIkJUkr2KSCAkeOfI2HvvYlbJJjKymaJnzpq3/JUy8cI7WWNKlgkwQRc8kIzI0EBaT2p/N64NR9HDryq1Rb8/1DWC5cVJabgvPVUkwWI3NvIfUvZ4MVkZEtnaV7Rg3qLLl2wrHEvk6uPdKkg8mLn6grHBY2vEIMqoTDURIllwqqVVyWUzEe8V2MDSfzhRjTuKlLNNrvLzdWx2TVqobpiZwdm8MpO+nYNE/f8UmM74efFipKOGYhdGD4jHhMP4WNECEFNfxyp0AaE1wiOkhWw+gSq1SSlNQYqtbRSKBiEtJKSpLakBJLmghpIiRWSJMEmySgwcli6JGmOcY6TJKACVp0OI0n/PaDvBPtD26g/nEPRnQoxlskTK/Eg+3iNi6CCBbTD2wrAsJDqEqOiuun/pGHErdwDF17mxM+xkIVZ2EMUohDCYeweKN4cajpgQkM6+PxFCoaD06LbcLFnAbEIurioSmh/eEEII+XcLKOiAcTTlRfVb+3OJX7XcUNfidJCCf8ievTwaCI99jICAIhbPbAyfs49PBvUm9f5OKK4cwCXLjoWW4J3ifBxlmeay/3tLsKl6jAJebHItdak0pxNH7/qVK81SVKG11VvvUYqaj4QZCBxKOXRBy1mmWmnrNtBrbPOqQ+w1O3/VIg8JUn7uOWR36TRuciy92UuSXlwkJOs6Xh8B8xQz/jWkYc8JcN+m1EmBTa5er6ln+nopjfB7JtdbTiAHbw2NuDoaLXiAOLEqVWSZiqK7NTsGmih9ZnOHbLJyKBT97Hex7+dSayi7SzCsstZaUNK60MpwLGRCvOGlAwl/iFr7ca3w6By6N7tDWDd8bgh6GrwR4Aw+8A4jFLQ5feZgzLHzFhJFsLjSpMjCvjtR5ZOsOT74kj+MDJ+7jlkV9j0s3jtUK3Z8hyoZfHNeMI05QRRvCgwMvS1nWIPNrRZVKoDH5MWnQ4iI/hCWgV9cvCa3Qwl8+VXKtO3y5WMWIMxSnuhoEXfsHGWE+joVRMh7ZMc+w9n0DS++f1ypP3cvORX2XSX8RrirrBDzFBUEhGO6+A9JccGwPrVBMkxG7hB/yqg0XTmzZMXe62u1ILBQn6kUYONmBMDysd2jLDk4c/hdT+9FXdfvYr7HnqszSy+RgLP2LUEIJ3YnBlCKYkwQoMvsdNbBJ+tCkMv6DhDd4XP8nw5zje+k/1oYEwo0NZYiz0II9GMgarnGJwYjGqGFw4o1rD7zKp5DHfcM14jRE8pJrE7Eq5A8KF0rf43/q2/NG+LKPsmw+SqMigGPXkYrCS05JJTlz7E4i9/6I2OqeZbJ4idRkiEn6Js2imxADCdYZwOAui9GzRraVK9o/2iw+FI/eK4/4JObSwpNGPJCm6ZbhkCUsICNtH4jPh3VEhLMaoajwnslhWafiVbARvwsGoqobEm3g+yRqcirkkMQoUtt+i/SGIMY11KDZiF+Tp99Loa4D4U7cRo7ptwWASsw8sjcGNmdkqFe0ixnK+foD/B1pUjpx8G6aOAAAAAElFTkSuQmCC;" vertex="1" parent="1">
          <mxGeometry x="653" y="-29" width="120" height="69" as="geometry" />
        </mxCell>
        <mxCell id="LMukZNEwBTwXTP5Ie_SG-51" style="edgeStyle=orthogonalEdgeStyle;rounded=0;orthogonalLoop=1;jettySize=auto;html=1;exitX=1;exitY=0.5;exitDx=0;exitDy=0;entryX=0;entryY=0.5;entryDx=0;entryDy=0;" edge="1" parent="1" source="LMukZNEwBTwXTP5Ie_SG-38" target="LMukZNEwBTwXTP5Ie_SG-50">
          <mxGeometry relative="1" as="geometry" />
        </mxCell>
        <mxCell id="LMukZNEwBTwXTP5Ie_SG-53" style="edgeStyle=orthogonalEdgeStyle;rounded=0;orthogonalLoop=1;jettySize=auto;html=1;exitX=1;exitY=0.5;exitDx=0;exitDy=0;entryX=0;entryY=0.5;entryDx=0;entryDy=0;" edge="1" parent="1" source="LMukZNEwBTwXTP5Ie_SG-38" target="LMukZNEwBTwXTP5Ie_SG-52">
          <mxGeometry relative="1" as="geometry" />
        </mxCell>
        <mxCell id="LMukZNEwBTwXTP5Ie_SG-38" value="" style="shape=image;verticalLabelPosition=bottom;labelBackgroundColor=default;verticalAlign=top;aspect=fixed;imageAspect=0;editableCssRules=.*;image=data:image/svg+xml,PHN2ZyB4bWxuczp4bGluaz0iaHR0cDovL3d3dy53My5vcmcvMTk5OS94bGluayIgeG1sbnM9Imh0dHA6Ly93d3cudzMub3JnLzIwMDAvc3ZnIiB4bWw6c3BhY2U9InByZXNlcnZlIiB2aWV3Qm94PSI0NS4xNTk5OTk4NDc0MTIxMSAtNC43NjgzNzE1ODIwMzEyNWUtNyAyNzkuOTk4OTYyNDAyMzQzNzUgMzcwLjMyMDAwNzMyNDIxODc1IiBpZD0iQ2FwYV8xIiB2ZXJzaW9uPSIxLjEiIHdpZHRoPSI2MDQuODgwMDIyNDcyMTE4OCIgaGVpZ2h0PSI4MDAuMDAwMDE1ODIyNDY0NCI+JiN4YTs8Zz4mI3hhOwk8cGF0aCBkPSJNMzIwLjgxNiw2My4yMTlMMjYxLjk0LDQuMzM5QzI1OS4xNTYsMS41NjEsMjU1LjM5LDAsMjUxLjQ1NywwSDc0LjI3MSYjMTA7JiM5OyYjOTtDNTguMjE5LDAsNDUuMTYsMTMuMDYsNDUuMTYsMjkuMTEydjMxMi4wOTVjMCwxNi4wNTMsMTMuMDU5LDI5LjExMywyOS4xMTEsMjkuMTEzaDIyMS43NzdjMTYuMDUyLDAsMjkuMTExLTEzLjA2LDI5LjExMS0yOS4xMTMmIzEwOyYjOTsmIzk7VjczLjcwM0MzMjUuMTYsNjkuNzY5LDMyMy42LDY1Ljk5OCwzMjAuODE2LDYzLjIxOXogTTI5My41NDcsMzM3LjkwN0g3Ni43NzNWMzIuNDE0aDE1NC4wODh2NDMuNTc3JiMxMDsmIzk7JiM5O2MwLDEwLjU1NCw4LjU1NCwxOS4xMDYsMTkuMTA1LDE5LjEwNmg0My41OFYzMzcuOTA3eiIgc3R5bGU9ImZpbGw6IzAyMDIwMjsiLz4mI3hhOwk8cGF0aCBkPSJNMTAzLjgyNywxNDkuMTZjMCw4LjI4NCw2LjcxNiwxNSwxNSwxNWgxMzIuNjY3YzguMjg0LDAsMTUtNi43MTYsMTUtMTVzLTYuNzE2LTE1LTE1LTE1SDExOC44MjcmIzEwOyYjOTsmIzk7QzExMC41NDIsMTM0LjE2LDEwMy44MjcsMTQwLjg3NiwxMDMuODI3LDE0OS4xNnoiIHN0eWxlPSJmaWxsOiMwMjAyMDI7Ii8+JiN4YTsJPHBhdGggZD0iTTI1MS40OTQsMjI0LjE2SDExOC44MjdjLTguMjg0LDAtMTUsNi43MTYtMTUsMTVzNi43MTYsMTUsMTUsMTVoMTMyLjY2N2M4LjI4NCwwLDE1LTYuNzE2LDE1LTE1JiMxMDsmIzk7JiM5O1MyNTkuNzc4LDIyNC4xNiwyNTEuNDk0LDIyNC4xNnoiIHN0eWxlPSJmaWxsOiMwMjAyMDI7Ii8+JiN4YTs8L2c+JiN4YTs8L3N2Zz4=;" vertex="1" parent="1">
          <mxGeometry x="817" y="-23.32" width="43.59" height="57.64" as="geometry" />
        </mxCell>
        <mxCell id="LMukZNEwBTwXTP5Ie_SG-42" value="Mark down or&lt;div&gt;Text Document&lt;/div&gt;" style="text;html=1;align=center;verticalAlign=middle;resizable=0;points=[];autosize=1;strokeColor=none;fillColor=none;" vertex="1" parent="1">
          <mxGeometry x="791" y="43" width="100" height="40" as="geometry" />
        </mxCell>
        <mxCell id="LMukZNEwBTwXTP5Ie_SG-48" value="Table node" style="text;html=1;align=center;verticalAlign=middle;resizable=0;points=[];autosize=1;strokeColor=none;fillColor=none;" vertex="1" parent="1">
          <mxGeometry x="919.2" y="74.39" width="80" height="30" as="geometry" />
        </mxCell>
        <mxCell id="LMukZNEwBTwXTP5Ie_SG-49" value="Text node" style="text;html=1;align=center;verticalAlign=middle;resizable=0;points=[];autosize=1;strokeColor=none;fillColor=none;" vertex="1" parent="1">
          <mxGeometry x="915" y="-24.540000000000006" width="80" height="30" as="geometry" />
        </mxCell>
        <mxCell id="LMukZNEwBTwXTP5Ie_SG-60" style="edgeStyle=orthogonalEdgeStyle;rounded=0;orthogonalLoop=1;jettySize=auto;html=1;exitX=1;exitY=0.5;exitDx=0;exitDy=0;entryX=0.5;entryY=0;entryDx=0;entryDy=0;" edge="1" parent="1" source="LMukZNEwBTwXTP5Ie_SG-50" target="LMukZNEwBTwXTP5Ie_SG-15">
          <mxGeometry relative="1" as="geometry">
            <mxPoint x="1180" y="100" as="targetPoint" />
          </mxGeometry>
        </mxCell>
        <mxCell id="LMukZNEwBTwXTP5Ie_SG-50" value="" style="shape=image;verticalLabelPosition=bottom;labelBackgroundColor=default;verticalAlign=top;aspect=fixed;imageAspect=0;editableCssRules=.*;image=data:image/svg+xml,PHN2ZyB4bWxucz0iaHR0cDovL3d3dy53My5vcmcvMjAwMC9zdmciIGNsYXNzPSJpY29uIiB2aWV3Qm94PSI2NCAxNjAgODk2IDcwNCIgaGVpZ2h0PSI1NTAiIHdpZHRoPSI3MDAiIGZpbGw9IiMwMDAwMDAiPiYjeGE7ICA8cGF0aCBkPSJNOTI4IDE2MEg5NmMtMTcuNyAwLTMyIDE0LjMtMzIgMzJ2NjQwYzAgMTcuNyAxNC4zIDMyIDMyIDMyaDgzMmMxNy43IDAgMzItMTQuMyAzMi0zMlYxOTJjMC0xNy43LTE0LjMtMzItMzItMzJ6bS00MCAyMDhINjc2VjIzMmgyMTJ2MTM2em0wIDIyNEg2NzZWNDMyaDIxMnYxNjB6TTQxMiA0MzJoMjAwdjE2MEg0MTJWNDMyem0yMDAtNjRINDEyVjIzMmgyMDB2MTM2em0tNDc2IDY0aDIxMnYxNjBIMTM2VjQzMnptMC0yMDBoMjEydjEzNkgxMzZWMjMyem0wIDQyNGgyMTJ2MTM2SDEzNlY2NTZ6bTI3NiAwaDIwMHYxMzZINDEyVjY1NnptNDc2IDEzNkg2NzZWNjU2aDIxMnYxMzZ6Ii8+JiN4YTs8L3N2Zz4=;" vertex="1" parent="1">
          <mxGeometry x="933.7" y="34.32" width="51" height="40.07" as="geometry" />
        </mxCell>
        <mxCell id="LMukZNEwBTwXTP5Ie_SG-66" style="edgeStyle=orthogonalEdgeStyle;rounded=0;orthogonalLoop=1;jettySize=auto;html=1;exitX=1;exitY=0.5;exitDx=0;exitDy=0;" edge="1" parent="1" source="LMukZNEwBTwXTP5Ie_SG-52">
          <mxGeometry relative="1" as="geometry">
            <mxPoint x="1090" y="110" as="targetPoint" />
          </mxGeometry>
        </mxCell>
        <mxCell id="LMukZNEwBTwXTP5Ie_SG-52" value="" style="shape=image;verticalLabelPosition=bottom;labelBackgroundColor=default;verticalAlign=top;aspect=fixed;imageAspect=0;editableCssRules=.*;image=data:image/svg+xml,PHN2ZyB4bWxuczp4bGluaz0iaHR0cDovL3d3dy53My5vcmcvMTk5OS94bGluayIgeG1sbnM9Imh0dHA6Ly93d3cudzMub3JnLzIwMDAvc3ZnIiB4bWw6c3BhY2U9InByZXNlcnZlIiB2aWV3Qm94PSI0NS4xNTk5OTk4NDc0MTIxMSAtNC43NjgzNzE1ODIwMzEyNWUtNyAyNzkuOTk4OTYyNDAyMzQzNzUgMzcwLjMyMDAwNzMyNDIxODc1IiBpZD0iQ2FwYV8xIiB2ZXJzaW9uPSIxLjEiIHdpZHRoPSI2MDQuODgwMDIyNDcyMTE4OCIgaGVpZ2h0PSI4MDAuMDAwMDE1ODIyNDY0NCI+JiN4YTs8Zz4mI3hhOwk8cGF0aCBkPSJNMzIwLjgxNiw2My4yMTlMMjYxLjk0LDQuMzM5QzI1OS4xNTYsMS41NjEsMjU1LjM5LDAsMjUxLjQ1NywwSDc0LjI3MSYjMTA7JiM5OyYjOTtDNTguMjE5LDAsNDUuMTYsMTMuMDYsNDUuMTYsMjkuMTEydjMxMi4wOTVjMCwxNi4wNTMsMTMuMDU5LDI5LjExMywyOS4xMTEsMjkuMTEzaDIyMS43NzdjMTYuMDUyLDAsMjkuMTExLTEzLjA2LDI5LjExMS0yOS4xMTMmIzEwOyYjOTsmIzk7VjczLjcwM0MzMjUuMTYsNjkuNzY5LDMyMy42LDY1Ljk5OCwzMjAuODE2LDYzLjIxOXogTTI5My41NDcsMzM3LjkwN0g3Ni43NzNWMzIuNDE0aDE1NC4wODh2NDMuNTc3JiMxMDsmIzk7JiM5O2MwLDEwLjU1NCw4LjU1NCwxOS4xMDYsMTkuMTA1LDE5LjEwNmg0My41OFYzMzcuOTA3eiIgc3R5bGU9ImZpbGw6IzAyMDIwMjsiLz4mI3hhOwk8cGF0aCBkPSJNMTAzLjgyNywxNDkuMTZjMCw4LjI4NCw2LjcxNiwxNSwxNSwxNWgxMzIuNjY3YzguMjg0LDAsMTUtNi43MTYsMTUtMTVzLTYuNzE2LTE1LTE1LTE1SDExOC44MjcmIzEwOyYjOTsmIzk7QzExMC41NDIsMTM0LjE2LDEwMy44MjcsMTQwLjg3NiwxMDMuODI3LDE0OS4xNnoiIHN0eWxlPSJmaWxsOiMwMjAyMDI7Ii8+JiN4YTsJPHBhdGggZD0iTTI1MS40OTQsMjI0LjE2SDExOC44MjdjLTguMjg0LDAtMTUsNi43MTYtMTUsMTVzNi43MTYsMTUsMTUsMTVoMTMyLjY2N2M4LjI4NCwwLDE1LTYuNzE2LDE1LTE1JiMxMDsmIzk7JiM5O1MyNTkuNzc4LDIyNC4xNiwyNTEuNDk0LDIyNC4xNnoiIHN0eWxlPSJmaWxsOiMwMjAyMDI7Ii8+JiN4YTs8L2c+JiN4YTs8L3N2Zz4=;" vertex="1" parent="1">
          <mxGeometry x="933.7" y="-76.18" width="43.59" height="57.64" as="geometry" />
        </mxCell>
      </root>
    </mxGraphModel>
  </diagram>
</mxfile>
